<?xml version="1.0" encoding="UTF-8" standalone="no"?>
<svg
   version="1.1"
   width="23.864521"
   height="24.043198"
   style="clip-rule:evenodd;fill-rule:evenodd;image-rendering:optimizeQuality;shape-rendering:geometricPrecision;text-rendering:geometricPrecision"
   id="svg11"
   xmlns="http://www.w3.org/2000/svg"
   xmlns:svg="http://www.w3.org/2000/svg">
  <defs
     id="defs11" />
  <g
     id="g8"
     style="stroke-width:1.00157;stroke-dasharray:none"
     transform="translate(-48.027668,-155.66716)">
    <path
       style="opacity:1;stroke-width:1.00157;stroke-dasharray:none"
       fill="#111111"
       d="m 55.89219,155.71036 c 0.739,-0.131 1.406,0.036 2,0.5 2.684,6.181 7.351,8.681 14,7.5 0,1 0,2 0,3 -6.234,1.457 -8.734,5.457 -7.5,12 -0.414,0.457 -0.914,0.791 -1.5,1 -1.788,-2.291 -3.788,-4.457 -6,-6.5 -2.667,-0.333 -5.333,-0.667 -8,-1 -0.951,-0.718 -1.117,-1.551 -0.5,-2.5 6.142,-2.658 8.642,-7.325 7.5,-14 z"
       id="path8" />
  </g>
</svg>
