<?xml version="1.0" encoding="UTF-8" standalone="no"?>
<svg
   version="1.1"
   width="49.000008"
   height="48.000015"
   style="clip-rule:evenodd;fill-rule:evenodd;image-rendering:optimizeQuality;shape-rendering:geometricPrecision;text-rendering:geometricPrecision"
   id="svg11"
   xmlns="http://www.w3.org/2000/svg"
   xmlns:svg="http://www.w3.org/2000/svg">
  <defs
     id="defs11" />
  <g
     id="g7"
     transform="translate(-207.5,-131.49999)">
    <g
       id="g12">
      <path
         id="path7"
         style="opacity:1"
         d="m 244.5,131.5 c 5.113,0.593 9.113,3.093 12,7.5 -1.543,2.948 -3.71,3.782 -6.5,2.5 -0.257,2.517 0.41,4.85 2,7 0.667,1.667 0.667,3.333 0,5 -2.01,1.348 -4.01,2.682 -6,4 -1.657,-0.984 -3.12446,-3.51003 -5,-3 -4.03029,1.09598 -0.088,9.429 -6,11 -5.994,-3.699 -12.16,-6.866 -18.5,-9.5 -1.337,6.172 -2.837,12.339 -4.5,18.5 -0.973,2.14 -2.473,3.807 -4.5,5 0.277,-6.997 1.444,-13.997 3.5,-21 2.514,-3.516 5.848,-5.85 10,-7 3.749,1.192 7.249,2.858 10.5,5 l 1,-1 c -7.016,-12.445 -4.016,-16.612 9,-12.5 -1.537,-2.313 -2.037,-4.813 -1.5,-7.5 1.667,-1.233 3.167,-2.567 4.5,-4 z" />
    </g>
  </g>
</svg>
